<?xml version="1.0" encoding="UTF-8"?>
<svg id="Calque_1" xmlns="http://www.w3.org/2000/svg" version="1.1" viewBox="0 0 525.9 267.7">
  <!-- Generator: Adobe Illustrator 29.3.1, SVG Export Plug-In . SVG Version: 2.1.0 Build 151)  -->
  <defs>
    <style>
      .st0 {
        fill: #1e93e2;
      }

      .st1 {
        fill: none;
      }

      .st2 {
        isolation: isolate;
      }

      .st3 {
        fill: #0d4472;
      }
    </style>
  </defs>
  <path class="st0" d="M111.9,151.8c-3.7-1.9-10.4-4.6-19.1-5-18.4-.7-30.8,9.8-33,11.7h0c1.2-3.4,4.7-11.1,13.6-17.3,5.5-3.8,11-5.6,14.6-6.5,4.2-1,9.7-1.8,16.2-2,7.7-.2,14.1.8,18.8,1.8-3.7,5.7-7.4,11.5-11,17.2Z"/>
  <g>
    <path class="st1" d="M184.4,117.3c-5.4-14.1-8.4-21.9-8.9-23.3-3.2,6.1-5.9,11-8.1,14.9l-3.1,5.5c5.2,1.6,12.2,3.1,20.2,2.9Z"/>
    <path class="st0" d="M126.7,135.7c-1.8-.6-3.2-1-4.2-1.2-3.6,5.6-7.1,11.1-10.7,16.7l-6,8.9c8.2,0,14.2-.1,17.9-.1s7.6,0,16.6.1c3.1-6,6.1-11.6,9-16.9-5.3-1.6-10.7-3.4-16.1-5.2-2.5-.8-3.8-1.5-6.5-2.3Z"/>
    <path class="st0" d="M220.9,134.2c-3.4,3.4-7.9,7-13.4,9.8-4.1,2-8.2,3.4-12.5,4.3,1.6,4.2,3,8.2,4.2,11.8,7.9,0,13.9-.1,18-.1s6.9,0,15.3.1l-4.2-9-7.3-16.8Z"/>
    <path class="st3" d="M330.8,117c-.7-2.9-1.8-5.5-3.2-7.9-1.4-2.3-3-4.3-4.8-5.8s-3.4-2.6-5-3.3c-1.6-.7-3.6-1.3-6.2-1.8,2.6-.9,4.6-1.8,6.1-2.6,1.5-.9,3.1-2.1,4.7-3.7,1.6-1.6,3-3.6,4.3-5.9s2.3-5.1,3-8.2c.7-3.1,1.1-6.3,1.1-9.6s-.6-8.3-1.8-12.1c-1.1-3.3-2.5-6.1-4.4-8.5-1.7-2-3.8-3.7-6.4-5-2.5-1.4-5.5-2.3-8.9-2.8-2.6-.4-6.9-.6-13-.6s-9.5.1-15.4.3l-.9,23.5h6.7c3.9,0,6.8.4,8.7,1.2,1.9.8,3.3,2.1,4.1,3.8.8,1.7,1.3,3.6,1.3,5.8s-.2,3.1-.6,4.6c-.4,1.5-1.1,2.9-2.1,4.1-1,1.2-2.2,2.1-3.5,2.6-1.4.5-2.8.9-4.2,1.1-1.4.2-3.9.3-7.3.3h-3.9l-.9,23.9h9.1c3.3,0,5.7.2,7.3.7,1.6.4,2.9,1.2,3.9,2.2,1.1,1,1.9,2.2,2.4,3.7.5,1.5.8,3.2.8,5.1s-.3,4.3-1,6.1c-.7,1.8-1.5,3.3-2.7,4.3-1.1,1.1-2.7,1.9-4.9,2.6-1.7.5-4.5.8-8.2.8h-7.8l-.9,24.1c6.4,0,12.6-.1,18.4-.3,6.7-.2,11.3-.6,13.8-1.1,3.1-.6,6.1-1.8,9.1-3.5,3-1.7,5.4-3.8,7.2-6.2,2.2-2.8,3.9-6.2,5.1-10.1,1.2-3.9,1.8-8.1,1.8-12.6s-.4-6.3-1.1-9.2Z"/>
    <path class="st3" d="M259.8,40c-3.8,0-8.9,0-15.4-.3,0,4.7,0,8.3,0,10.9,0,7.2-.2,19.7-.7,37.3-.5,17.6-.9,31.5-1.4,41.6-.3,7.4-1,17.6-2,30.5h14.1c0,0,14.4,0,14.4,0l4.6-120.3c-5.1.2-9.6.2-13.7.2Z"/>
    <path class="st3" d="M427.6,65.5c6.9-11.1,12.1-19.7,15.6-25.7-7.2.1-12.8.2-16.7.2-6.1,0-11.7,0-16.8-.2-2.5,5.3-5.5,11-8.8,17.1-1.4,2.5-2.6,4.7-3.7,6.9l14,29.4c5.3-9.1,10.7-18.3,16.5-27.5Z"/>
    <path class="st3" d="M361.8,39.9c-6.5,0-13,0-19.2-.2,2.2,4.3,4.2,8.2,6,11.6l7.3,13.7c3,5.7,5.3,10.1,6.9,13.3l8.6,17.5c-4.5,7.8-10.8,18.2-18.9,31.4-8.1,13.2-15,24.1-20.7,32.8,7.1-.1,13-.2,17.5-.2s9.7,0,16.8.2c3.3-6.1,7.1-12.9,11.4-20.4,4.3-7.5,7.4-13.3,9.3-17.4,2.5,6.1,5.5,12.7,8.9,19.9,3.4,7.2,6.1,13.1,8,17.9,6.3-.1,12.6-.2,19-.2s6.7,0,11.5,0l-57.3-120.2c-5.4,0-10.4.2-15.2.2Z"/>
    <path class="st3" d="M217.4,123.3c10.7-10.9,12.7-25,13.2-31.7-1.5,2.5-7.4,12.1-19.9,18.9l-4-9.2-10.6-25.8c-5.8,0-12.2.1-19,.1s-10.2,0-18.7-.1c-2.1,3.7-3.7,6.6-4.9,8.6l-4,6.8-9.3,14.9c-9.9-2.2-23.4-3.2-37.4,2.1-19.7,7.5-27.8,22.8-29.7,26.8,5.4-4,14.5-9.4,27.3-11.9,21.9-4.2,40.7,3,48,6.3,26.2,12.3,53.5,10,69-5.7ZM175.5,94c.5,1.5,3.5,9.2,8.9,23.3-8.1.1-15.1-1.3-20.2-2.9l3.1-5.5c2.2-3.9,4.9-8.8,8.1-14.9Z"/>
  </g>
  <g class="st2">
    <g class="st2">
      <path class="st0" d="M133.8,229.8h-6.6v-47.3h-19.5v-5.8h45.4v5.8h-19.3v47.3Z"/>
      <path class="st0" d="M176.6,207.6h-8.4v22.3h-6.5v-53.1c0,0,21.5,0,21.5,0,7.9,0,15.2,5.5,15.2,15.2s-7.1,15-14.4,15.4l.7.5,14.9,21.2v.7h-6.8l-16.1-22.3ZM182.5,182.5h-14.3v19.2h14.4c4.8,0,9.6-4.2,9.6-9.7s-4.8-9.6-9.7-9.6Z"/>
      <path class="st0" d="M238.5,217.2h-23.8c-1.6,4.1-3.2,8.5-4.8,12.6h-6.6l20.9-53.2h5.4l20.5,53.2h-6.8l-4.8-12.6ZM216.8,211.5h19.5l-9.8-25-9.7,25Z"/>
      <path class="st0" d="M276.4,229.8h-19v-53h19.9c11.3,0,23.6,8.9,23.6,26.6s-12.9,26.4-24.5,26.4ZM276.2,182.5h-12.3v41.7h12.1c8.6,0,18.6-6.9,18.6-20.6s-9-21-18.5-21Z"/>
      <path class="st0" d="M313.9,176.8h6.5v53.1h-6.5v-53.1Z"/>
      <path class="st0" d="M339.8,189.6v40.2h-6.5v-53.1h5l29.8,39.4v-39.4h6.4v53.2h-4.2l-30.4-40.3Z"/>
      <path class="st0" d="M422.3,227.4c-3.6,1.8-8.5,3.1-13.2,3.1-12,0-25.5-9.7-25.5-27.5s12.4-27.2,25.2-27.2,7,.4,10.4,1.6c3.8,1.3,7.8,4.1,9.9,6.1l-3.2,4.8c-2.2-1.8-5.6-3.9-7.9-4.8-2.5-1-5.6-1.6-9.2-1.6-9.9,0-18.8,8.3-18.8,21.2s9.9,21.5,19.2,21.5,11.1-2.3,14.6-5h-.1c0,0,0-12.5,0-12.5h-16.7l.8-5.6h22v21.5c-1.9,1.6-4.5,3.2-7.4,4.6Z"/>
    </g>
  </g>
  <polygon class="st3" points="157.2 77.4 196.8 77.4 180 36.9 157.2 77.4"/>
</svg>